<svg width="50px" height="50px" viewBox="3 3 45 45"> <defs></defs> <g stroke="none" stroke-width="1" fill="none" fill-rule="evenodd"> <g transform="translate(-20.000000, -814.000000)"> <g transform="translate(20.000000, 708.000000)"> <g transform="translate(0.000000, 106.000000)"> <polygon points="0 0 50 0 50 50 0 50"></polygon> <path d="M25.0000417,4.51388889 C30.7508913,4.51388889 35.6608259,6.54838482 39.7298733,10.6173906 C43.7988791,14.6863963 45.833375,19.5963171 45.833375,25.3472222 C45.833375,31.0980718 43.7988791,36.0080065 39.7298733,40.0770539 C35.6608676,44.1460596 30.7509468,46.1805556 25.0000417,46.1805556 C19.2491921,46.1805556 14.3392574,44.1460596 10.27021,40.0770539 C6.20120426,36.0080481 4.16670833,31.0981274 4.16670833,25.3472222 C4.16670833,19.5963726 6.20120426,14.686438 10.27021,10.6173906 C14.3392158,6.54838482 19.2491365,4.51388889 25.0000417,4.51388889 Z M22.8847211,33.5556273 L36.2430565,19.572367 C36.9463712,18.8361501 36.9463712,17.6770059 36.2430565,16.940789 L36.2430565,16.940789 C35.5798678,16.2465753 34.4794757,16.2214245 33.785262,16.8846132 C33.7661112,16.9029081 33.7473811,16.9216382 33.7290862,16.940789 L22.1616614,29.0493569 C21.7801626,29.4487028 21.147163,29.4631708 20.7478171,29.081672 C20.7368006,29.0711479 20.7260261,29.0603734 20.715502,29.0493569 L16.2709972,24.3969309 C15.6078085,23.7027171 14.5074164,23.6775663 13.8132027,24.340755 C13.7940519,24.3590499 13.7753217,24.3777801 13.7570268,24.3969309 L13.7570268,24.3969309 C13.0537116,25.1331483 13.0537101,26.2922929 13.7570233,27.0285122 L19.9923986,33.5556234 C20.755394,34.3543172 22.0213932,34.3832566 22.8200871,33.6202612 C22.8421213,33.5992117 22.8636716,33.5776615 22.8847211,33.5556273 Z" fill="#2ECC71" fill-rule="nonzero"></path> </g> </g> </g> </g> </svg>